<?xml version="1.0" encoding="utf-8"?>
<!-- Generator: Adobe Illustrator 15.1.0, SVG Export Plug-In . SVG Version: 6.00 Build 0)  -->
<!DOCTYPE svg PUBLIC "-//W3C//DTD SVG 1.1//EN" "http://www.w3.org/Graphics/SVG/1.1/DTD/svg11.dtd">
<svg version="1.1" id="Layer_1" xmlns="http://www.w3.org/2000/svg" xmlns:xlink="http://www.w3.org/1999/xlink" x="0px" y="0px"
	 width="139.125px" height="48.938px" viewBox="0 0 139.125 48.938" enable-background="new 0 0 139.125 48.938"
	 xml:space="preserve">
<g>
	<defs>
		<rect id="SVGID_1_" x="-56.5" y="-47.5" width="252" height="144"/>
	</defs>
	<clipPath id="SVGID_2_">
		<use xlink:href="#SVGID_1_"  overflow="visible"/>
	</clipPath>
	<path clip-path="url(#SVGID_2_)" d="M37.847,26.545c0.88,0.745,2.073,1.121,3.425,1.121c1.347,0,2.544-0.379,3.427-1.128
		c0.053-0.3,0.083-0.622,0.083-0.973v-2.898c0,2.469-1.367,3.693-3.51,3.693c-2.162,0-3.509-1.225-3.509-3.693v2.898
		C37.763,25.919,37.792,26.243,37.847,26.545"/>
	<polygon clip-path="url(#SVGID_2_)" points="72.927,23.912 72.424,25.177 77.104,25.177 76.602,23.912 	"/>
	<rect x="84.649" y="19.454" clip-path="url(#SVGID_2_)" width="4.265" height="1.306"/>
	<rect x="90.382" y="19.455" clip-path="url(#SVGID_2_)" width="4.266" height="1.306"/>
	<rect x="102.767" y="21.443" clip-path="url(#SVGID_2_)" width="6.225" height="1.286"/>
	<path clip-path="url(#SVGID_2_)" d="M119.376,21.585c-0.429,0-1.326,0.103-1.326,0.103s0.755-0.511,1.122-0.898l1.449-1.47
		c0.098-0.098,0.192-0.196,0.282-0.295c-0.018-0.511-0.219-0.922-0.593-1.172c-0.192,0.265-0.429,0.533-0.71,0.815l-3.897,3.896
		v0.184h2.716l1.163-1.163H119.376z"/>
	<path clip-path="url(#SVGID_2_)" d="M25.329,29.064c0.457,0.114,0.94,0.175,1.446,0.175c0.562,0,1.086-0.07,1.573-0.199
		c0.461-0.382,0.869-0.826,1.213-1.33l-1.143-0.797C27.679,27.984,26.638,28.741,25.329,29.064"/>
	<path clip-path="url(#SVGID_2_)" d="M25.327,17.865c1.267,0.314,2.248,1.034,2.908,2.008l1.122-0.816
		c-0.296-0.443-0.634-0.833-1.015-1.169c-0.481-0.127-1.003-0.198-1.567-0.198C26.269,17.69,25.784,17.751,25.327,17.865"/>
	<path clip-path="url(#SVGID_2_)" d="M18.556,25.422c-0.194-0.604-0.299-1.263-0.299-1.957c0-0.505,0.056-0.99,0.16-1.45
		c0.459-2.025,1.879-3.558,3.818-4.105c0.886-0.707,1.952-1.195,3.124-1.414c-0.476-0.086-0.979-0.132-1.511-0.132
		c-2.103,0-3.989,0.832-5.292,2.245c-0.844,0.914-1.442,2.073-1.694,3.406c-0.088,0.464-0.135,0.947-0.135,1.45
		c0,4.183,3.183,7.101,7.121,7.101c0.516,0,1.008-0.048,1.479-0.136c-1.16-0.222-2.215-0.709-3.093-1.409
		C20.459,28.519,19.123,27.193,18.556,25.422"/>
	<path clip-path="url(#SVGID_2_)" d="M23.848,17.69c0.53,0,1.022,0.062,1.479,0.175c0.457-0.114,0.942-0.175,1.448-0.175
		c0.564,0,1.086,0.07,1.567,0.198c-0.811-0.716-1.813-1.181-2.983-1.392c-1.172,0.218-2.238,0.706-3.124,1.413
		C22.741,17.768,23.28,17.69,23.848,17.69"/>
	<path clip-path="url(#SVGID_2_)" d="M25.329,29.064c-0.461,0.113-0.955,0.175-1.481,0.175c-0.569,0-1.109-0.076-1.615-0.219
		c0.878,0.7,1.934,1.188,3.094,1.409c1.164-0.218,2.183-0.695,3.021-1.39c-0.487,0.129-1.011,0.199-1.573,0.199
		C26.269,29.239,25.786,29.179,25.329,29.064"/>
	<path clip-path="url(#SVGID_2_)" d="M44.698,26.538c-0.322,1.816-1.587,2.722-3.426,2.722c-1.854,0-3.105-0.902-3.426-2.715
		c-0.964-0.816-1.551-2.075-1.553-3.769v2.892c0,3.244,2.143,4.897,4.979,4.897c2.816,0,4.979-1.653,4.979-4.897v-2.899
		C46.251,24.462,45.661,25.721,44.698,26.538"/>
	<path clip-path="url(#SVGID_2_)" d="M44.782,22.667v2.899c0,0.35-0.03,0.672-0.083,0.972c0.962-0.817,1.552-2.076,1.552-3.769
		v-6.242h-1.469V22.667z"/>
	<path clip-path="url(#SVGID_2_)" d="M37.847,26.545c-0.054-0.302-0.084-0.626-0.084-0.979v-2.898v-6.14h-1.469v6.249
		C36.295,24.47,36.883,25.729,37.847,26.545"/>
	<path clip-path="url(#SVGID_2_)" d="M60.229,26.028l-0.74-1.051c-0.629,0.299-1.434,0.467-2.445,0.467h-1.571V23.83v3.673h-1.469
		v2.899h1.469v-3.673h1.653c0.49,0,0.999-0.041,1.469-0.122l2.673,3.795h1.734l-3.02-4.265
		C60.066,26.104,60.147,26.065,60.229,26.028"/>
	<path clip-path="url(#SVGID_2_)" d="M61.289,22.463c-0.098,0.629-0.319,1.189-0.687,1.65l0.808,1.142
		c0.973-0.879,1.47-2.128,1.47-3.606c0-0.517-0.06-1.006-0.175-1.464C62.469,21.096,61.996,21.871,61.289,22.463"/>
	<path clip-path="url(#SVGID_2_)" d="M55.473,22.545v-4.712h1.571c2.381,0,3.633,0.95,4.094,2.369
		c0.144-0.442,0.211-0.931,0.211-1.452c0-0.322-0.026-0.631-0.08-0.926c-0.961-0.82-2.346-1.297-4.143-1.297h-1.653V22.545z"/>
	<path clip-path="url(#SVGID_2_)" d="M61.138,20.202c0.144,0.442,0.211,0.929,0.211,1.447c0,0.282-0.02,0.554-0.06,0.814
		c0.706-0.592,1.18-1.367,1.415-2.278c-0.237-0.942-0.717-1.748-1.435-2.36c0.054,0.294,0.08,0.603,0.08,0.925
		C61.349,19.271,61.282,19.76,61.138,20.202"/>
	<path clip-path="url(#SVGID_2_)" d="M59.488,24.978l0.74,1.051c0.451-0.209,0.845-0.468,1.181-0.773l-0.808-1.142
		C60.32,24.464,59.952,24.756,59.488,24.978"/>
	<polygon clip-path="url(#SVGID_2_)" points="55.473,23.83 55.473,23.83 55.473,22.545 55.473,16.527 54.004,16.527 54.004,27.503 
		55.473,27.503 	"/>
	<path clip-path="url(#SVGID_2_)" d="M71.774,23.912h1.152l1.297-3.263c0.265-0.653,0.551-1.653,0.551-1.653s0.266,1,0.53,1.653
		l1.297,3.263h1.151l-2.448-6.162c-0.177-0.434-0.353-1.02-0.45-1.365h-0.165c-0.104,0.345-0.29,0.931-0.466,1.365L71.774,23.912z"
		/>
	<polygon clip-path="url(#SVGID_2_)" points="79.223,27.503 78.285,25.177 77.104,25.177 77.753,26.811 71.774,26.811 
		72.424,25.177 71.265,25.177 70.347,27.503 70.088,27.503 68.897,30.402 70.347,30.402 71.265,28.076 78.285,28.076 79.223,30.402 
		80.773,30.402 79.558,27.503 	"/>
	<path clip-path="url(#SVGID_2_)" d="M71.265,25.177h1.159l0.503-1.265h-1.152l2.449-6.162c0.176-0.434,0.361-1.02,0.466-1.365
		h-0.037l-4.564,11.118h0.259L71.265,25.177z"/>
	<path clip-path="url(#SVGID_2_)" d="M77.753,23.912h-1.151l0.502,1.265h1.181l0.938,2.326h0.335l-4.661-11.118h-0.042
		c0.098,0.345,0.274,0.931,0.45,1.365L77.753,23.912z"/>
	<rect x="84.649" y="16.527" clip-path="url(#SVGID_2_)" width="4.265" height="1.306"/>
	<rect x="90.383" y="16.527" clip-path="url(#SVGID_2_)" width="4.266" height="1.306"/>
	<rect x="88.914" y="27.503" clip-path="url(#SVGID_2_)" width="1.469" height="2.899"/>
	<polygon clip-path="url(#SVGID_2_)" points="88.914,16.527 88.914,17.833 88.914,19.454 88.914,20.76 88.914,22.354 88.914,27.503 
		90.383,27.503 90.383,22.354 90.383,20.76 90.383,19.454 90.383,17.833 90.383,16.527 	"/>
	<rect x="102.767" y="24.342" clip-path="url(#SVGID_2_)" width="6.225" height="1.286"/>
	<polygon clip-path="url(#SVGID_2_)" points="102.768,27.503 101.299,27.503 101.299,30.402 110.031,30.402 110.031,29.097 
		102.768,29.097 	"/>
	<rect x="102.767" y="16.527" clip-path="url(#SVGID_2_)" width="6.979" height="1.306"/>
	<polygon clip-path="url(#SVGID_2_)" points="102.768,26.197 102.768,25.628 102.768,24.342 102.768,22.729 102.768,21.443 
		102.768,17.833 102.768,16.527 101.299,16.527 101.299,27.503 102.768,27.503 	"/>
	<path clip-path="url(#SVGID_2_)" d="M119.335,16.384c-1.632,0-2.754,0.918-3.224,2.428l1.204,0.388
		c0.367-1.041,1-1.612,1.999-1.612c0.409,0,0.742,0.096,0.996,0.265c0.272-0.375,0.453-0.742,0.538-1.129
		C120.422,16.507,119.913,16.384,119.335,16.384"/>
	<path clip-path="url(#SVGID_2_)" d="M118.05,24.587c0,0,0.755-0.51,1.122-0.898l0.928-0.94h-1.681l-2.716,2.715v0.185h6.57v-1.164
		h-2.897C118.947,24.485,118.05,24.587,118.05,24.587"/>
	<path clip-path="url(#SVGID_2_)" d="M120.906,19.098c0,0.877-0.449,1.612-1.306,2.469l-0.019,0.018h1.617
		c0.648-0.785,1.054-1.605,1.054-2.487c0-0.533-0.135-1.015-0.378-1.422c-0.234,0.463-0.567,0.911-0.972,1.349
		C120.904,19.05,120.906,19.073,120.906,19.098"/>
	<path clip-path="url(#SVGID_2_)" d="M120.621,22.22c0.209-0.209,0.402-0.421,0.578-0.635h-1.617l-1.163,1.163h1.681L120.621,22.22z
		"/>
	<path clip-path="url(#SVGID_2_)" d="M120.903,19.025c0.404-0.438,0.737-0.887,0.972-1.349c-0.24-0.401-0.588-0.728-1.026-0.952
		c-0.085,0.387-0.266,0.754-0.538,1.129C120.685,18.104,120.886,18.515,120.903,19.025"/>
	<polygon clip-path="url(#SVGID_2_)" points="134.525,0.335 4.475,0.335 0.271,0.335 0.271,4.54 0.271,42.391 0.271,46.594 
		4.475,46.594 54.791,46.594 53.485,45.29 4.475,45.29 1.575,45.29 1.575,42.391 1.575,4.54 1.575,1.64 4.475,1.64 134.525,1.64 
		137.425,1.64 137.425,4.54 137.425,42.391 137.425,45.29 134.525,45.29 81.621,45.29 82.926,46.594 134.525,46.594 138.729,46.594 
		138.729,42.391 138.729,4.54 138.729,0.335 	"/>
	<polygon clip-path="url(#SVGID_2_)" points="135.83,43.695 135.83,42.391 135.83,4.539 135.83,3.234 134.525,3.234 4.475,3.234 
		3.17,3.234 3.17,4.539 3.17,42.391 3.17,43.695 4.475,43.695 53.362,43.695 54.666,42.391 4.475,42.391 4.475,4.539 134.525,4.539 
		134.525,42.391 82.802,42.391 81.497,43.695 134.525,43.695 	"/>
	<path clip-path="url(#SVGID_2_)" d="M78.971,44.431l4.017-4.017l0.218-0.219h-6.133l-0.652,0.652l-3.582,3.583l3.582,3.582
		l0.652,0.652h6.133l-0.218-0.218L78.971,44.431z M80.056,47.36h-2.443l-2.93-2.93l2.93-2.931h2.443l-2.93,2.931L80.056,47.36z"/>
	<path clip-path="url(#SVGID_2_)" d="M69.071,44.431l3.583-3.583l0.651-0.652H58.698l-1.109,1.11l-3.125,3.125l3.125,3.124
		l1.109,1.11h14.607l-0.652-0.652L69.071,44.431z M70.156,47.36h-6.629l-2.277-2.278h-1.845l2.277,2.278h-2.443l-2.278-2.278h-1.575
		v-1.304h1.575l2.278-2.278h2.443l-2.277,2.278h1.845l2.277-2.278h6.629l-2.278,2.278h0.271v1.304h-0.271L70.156,47.36z"/>
	<polygon clip-path="url(#SVGID_2_)" points="67.878,45.082 68.149,45.082 68.149,43.778 67.878,43.778 61.25,43.778 59.404,43.778 
		56.961,43.778 55.386,43.778 55.386,45.082 56.961,45.082 59.404,45.082 61.25,45.082 	"/>
</g>
</svg>
